<?xml version="1.0" encoding="iso-8859-1"?>
<!-- Uploaded to: SVG Repo, www.svgrepo.com, Generator: SVG Repo Mixer Tools -->
<svg fill="#000000" height="800px" width="800px" version="1.1" id="Layer_1" xmlns="http://www.w3.org/2000/svg" xmlns:xlink="http://www.w3.org/1999/xlink" 
	 viewBox="0 0 512.003 512.003" xml:space="preserve">
<g>
	<g>
		<path d="M119.47,0.001c-4.71,0-8.533,3.823-8.533,8.533v102.4c0,4.71,3.823,8.533,8.533,8.533s8.533-3.823,8.533-8.533V8.535
			C128.004,3.824,124.181,0.001,119.47,0.001z"/>
	</g>
</g>
<g>
	<g>
		<path d="M153.604,0.001c-4.71,0-8.533,3.823-8.533,8.533v93.867c0,4.71,3.823,8.533,8.533,8.533c4.71,0,8.533-3.823,8.533-8.533
			V8.535C162.137,3.824,158.314,0.001,153.604,0.001z"/>
	</g>
</g>
<g>
	<g>
		<path d="M187.737,0.001c-4.71,0-8.533,3.823-8.533,8.533v85.333c0,4.71,3.823,8.533,8.533,8.533s8.533-3.823,8.533-8.533V8.535
			C196.27,3.824,192.448,0.001,187.737,0.001z"/>
	</g>
</g>
<g>
	<g>
		<path d="M221.87,0.001c-4.71,0-8.533,3.823-8.533,8.533v85.333c0,4.71,3.823,8.533,8.533,8.533c4.71,0,8.533-3.823,8.533-8.533
			V8.535C230.404,3.824,226.581,0.001,221.87,0.001z"/>
	</g>
</g>
<g>
	<g>
		<path d="M256.004,0.001c-4.71,0-8.533,3.823-8.533,8.533v85.333c0,4.71,3.823,8.533,8.533,8.533c4.71,0,8.533-3.823,8.533-8.533
			V8.535C264.537,3.824,260.714,0.001,256.004,0.001z"/>
	</g>
</g>
<g>
	<g>
		<path d="M290.137,0.001c-4.71,0-8.533,3.823-8.533,8.533v85.333c0,4.71,3.823,8.533,8.533,8.533s8.533-3.823,8.533-8.533V8.535
			C298.671,3.824,294.848,0.001,290.137,0.001z"/>
	</g>
</g>
<g>
	<g>
		<path d="M324.27,0.001c-4.71,0-8.533,3.823-8.533,8.533v85.333c0,4.71,3.823,8.533,8.533,8.533s8.533-3.823,8.533-8.533V8.535
			C332.804,3.824,328.981,0.001,324.27,0.001z"/>
	</g>
</g>
<g>
	<g>
		<path d="M358.404,0.001c-4.71,0-8.533,3.823-8.533,8.533v93.867c0,4.71,3.823,8.533,8.533,8.533s8.533-3.823,8.533-8.533V8.535
			C366.937,3.824,363.114,0.001,358.404,0.001z"/>
	</g>
</g>
<g>
	<g>
		<path d="M392.537,0.001c-4.71,0-8.533,3.823-8.533,8.533v102.4c0,4.71,3.823,8.533,8.533,8.533c4.71,0,8.533-3.823,8.533-8.533
			V8.535C401.071,3.824,397.248,0.001,392.537,0.001z"/>
	</g>
</g>
<g>
	<g>
		<path d="M119.47,187.735c-4.71,0-8.533,3.823-8.533,8.533v68.267c0,4.71,3.823,8.533,8.533,8.533s8.533-3.823,8.533-8.533v-68.267
			C128.004,191.558,124.181,187.735,119.47,187.735z"/>
	</g>
</g>
<g>
	<g>
		<path d="M153.604,170.668c-4.71,0-8.533,3.823-8.533,8.533v85.333c0,4.71,3.823,8.533,8.533,8.533c4.71,0,8.533-3.823,8.533-8.533
			v-85.333C162.137,174.491,158.314,170.668,153.604,170.668z"/>
	</g>
</g>
<g>
	<g>
		<path d="M187.737,162.135c-4.71,0-8.533,3.823-8.533,8.533v93.867c0,4.71,3.823,8.533,8.533,8.533s8.533-3.823,8.533-8.533
			v-93.867C196.27,165.958,192.448,162.135,187.737,162.135z"/>
	</g>
</g>
<g>
	<g>
		<path d="M221.87,153.601c-4.71,0-8.533,3.823-8.533,8.533v102.4c0,4.71,3.823,8.533,8.533,8.533c4.71,0,8.533-3.823,8.533-8.533
			v-102.4C230.404,157.424,226.581,153.601,221.87,153.601z"/>
	</g>
</g>
<g>
	<g>
		<path d="M256.004,153.601c-4.71,0-8.533,3.823-8.533,8.533v102.4c0,4.71,3.823,8.533,8.533,8.533c4.71,0,8.533-3.823,8.533-8.533
			v-102.4C264.537,157.424,260.714,153.601,256.004,153.601z"/>
	</g>
</g>
<g>
	<g>
		<path d="M290.137,153.601c-4.71,0-8.533,3.823-8.533,8.533v102.4c0,4.71,3.823,8.533,8.533,8.533s8.533-3.823,8.533-8.533v-102.4
			C298.671,157.424,294.848,153.601,290.137,153.601z"/>
	</g>
</g>
<g>
	<g>
		<path d="M324.27,162.135c-4.71,0-8.533,3.823-8.533,8.533v93.867c0,4.71,3.823,8.533,8.533,8.533s8.533-3.823,8.533-8.533v-93.867
			C332.804,165.958,328.981,162.135,324.27,162.135z"/>
	</g>
</g>
<g>
	<g>
		<path d="M358.404,170.668c-4.71,0-8.533,3.823-8.533,8.533v85.333c0,4.71,3.823,8.533,8.533,8.533s8.533-3.823,8.533-8.533
			v-85.333C366.937,174.491,363.114,170.668,358.404,170.668z"/>
	</g>
</g>
<g>
	<g>
		<path d="M392.537,187.735c-4.71,0-8.533,3.823-8.533,8.533v68.267c0,4.71,3.823,8.533,8.533,8.533c4.71,0,8.533-3.823,8.533-8.533
			v-68.267C401.071,191.558,397.248,187.735,392.537,187.735z"/>
	</g>
</g>
<g>
	<g>
		<path d="M510.784,243.073c-27.699-46.165-97.63-123.605-254.78-123.605S28.923,196.908,1.216,243.073
			c-2.065,3.447-1.451,7.868,1.476,10.615l136.533,128c3.021,2.833,7.595,3.089,10.906,0.64
			c33.254-24.525,66.526-30.72,105.489-32.478c39.714,1.758,72.986,7.953,106.24,32.478c1.527,1.126,3.302,1.672,5.077,1.672
			c2.108,0,4.207-0.776,5.837-2.313l136.533-128C512.234,250.941,512.857,246.529,510.784,243.073z M366.178,364.486
			c-37.018-25.097-74.624-30.114-110.549-31.676c-35.217,1.562-72.781,6.579-109.798,31.676L19.477,246.026
			c32.981-51.302,100.412-109.491,236.527-109.491s203.546,58.189,236.527,109.491L366.178,364.486z"/>
	</g>
</g>
<g>
	<g>
		<path d="M345.595,393.678c-27.136-15.659-49.451-26.743-89.591-26.743c-40.141,0-62.455,11.085-89.6,26.743
			c-3.081,1.775-4.745,5.282-4.156,8.789l17.067,102.4c0.691,4.113,4.25,7.134,8.422,7.134H324.27c4.173,0,7.731-3.021,8.414-7.134
			l17.067-102.4C350.34,398.96,348.684,395.453,345.595,393.678z M230.404,494.935h-35.439l-14.063-84.395
			c28.066,4.881,49.502,29.355,49.502,58.795V494.935z M264.537,494.935H247.47v-25.6c0-33.382-21.453-61.781-51.26-72.346
			c17.143-8.243,34.014-12.988,59.793-12.988c25.779,0,42.641,4.745,59.793,12.988c-29.807,10.564-51.26,38.963-51.26,72.346
			V494.935z M317.043,494.935h-35.439v-25.6c0-29.44,21.436-53.914,49.502-58.795L317.043,494.935z"/>
	</g>
</g>
</svg>