<svg xmlns="http://www.w3.org/2000/svg" viewBox="0 0 48 48" id="telephone">
  <path d="M9,41h.18A3,3,0,0,0,12,43h8a3,3,0,0,0,2.82-2H39a4,4,0,0,0,4-4V11a4,4,0,0,0-4-4H22.82A3,3,0,0,0,20,5H12A3,3,0,0,0,9.18,7H9a4,4,0,0,0-4,4V37A4,4,0,0,0,9,41ZM41,11V37a2,2,0,0,1-2,2H23V37H38a1,1,0,0,0,0-2H23V9H39A2,2,0,0,1,41,11ZM12,7h8a1,1,0,0,1,1,1V40a1,1,0,0,1-1,1H12a1,1,0,0,1-1-1V8A1,1,0,0,1,12,7ZM7,11A2,2,0,0,1,9,9V39a2,2,0,0,1-2-2Z"></path>
  <path d="M26 18H38a1 1 0 0 0 1-1V12a1 1 0 0 0-1-1H26a1 1 0 0 0-1 1v5A1 1 0 0 0 26 18zm1-5H37v3H27zM26 22h2a1 1 0 0 0 0-2H26a1 1 0 0 0 0 2zM33 20H31a1 1 0 0 0 0 2h2a1 1 0 0 0 0-2zM38 20H36a1 1 0 0 0 0 2h2a1 1 0 0 0 0-2zM26 25h2a1 1 0 0 0 0-2H26a1 1 0 0 0 0 2zM33 23H31a1 1 0 0 0 0 2h2a1 1 0 0 0 0-2zM38 23H36a1 1 0 0 0 0 2h2a1 1 0 0 0 0-2zM26 28h2a1 1 0 0 0 0-2H26a1 1 0 0 0 0 2zM33 26H31a1 1 0 0 0 0 2h2a1 1 0 0 0 0-2zM33 29H31a1 1 0 0 0 0 2h2a1 1 0 0 0 0-2zM38 26H36a1 1 0 0 0 0 2h2a1 1 0 0 0 0-2z"></path>
</svg>
