<?xml version="1.0" encoding="UTF-8"?>
<!DOCTYPE svg PUBLIC "-//W3C//DTD SVG 1.1//EN" "http://www.w3.org/Graphics/SVG/1.1/DTD/svg11.dtd">
<svg xmlns="http://www.w3.org/2000/svg" version="1.1" width="879px" height="295px" style="shape-rendering:geometricPrecision; text-rendering:geometricPrecision; image-rendering:optimizeQuality; fill-rule:evenodd; clip-rule:evenodd" xmlns:xlink="http://www.w3.org/1999/xlink">
<g><path style="opacity:1" fill="#fefefe" d="M -0.5,-0.5 C 292.5,-0.5 585.5,-0.5 878.5,-0.5C 878.5,97.8333 878.5,196.167 878.5,294.5C 585.5,294.5 292.5,294.5 -0.5,294.5C -0.5,196.167 -0.5,97.8333 -0.5,-0.5 Z"/></g>
<g><path style="opacity:1" fill="#1e2638" d="M 16.5,201.5 C 16.2065,197.563 16.5399,193.73 17.5,190C 24.4921,189.5 31.4921,189.334 38.5,189.5C 40.4107,205.499 48.744,216.665 63.5,223C 82.9553,229.729 101.955,228.729 120.5,220C 131.607,211.019 134.774,199.852 130,186.5C 124.109,178.282 116.276,172.782 106.5,170C 92.3388,165.471 78.0054,161.471 63.5,158C 48.271,153.476 35.4376,145.309 25,133.5C 10.2951,104.667 16.4617,81.5001 43.5,64C 68.5303,53.419 93.8637,52.7524 119.5,62C 142.288,72.0757 153.622,89.5757 153.5,114.5C 145.826,114.666 138.159,114.5 130.5,114C 127.591,93.7573 115.924,82.0907 95.5,79C 79.7489,76.2546 65.0822,78.9213 51.5,87C 42.0223,96.2301 39.8557,107.063 45,119.5C 51.5891,126.545 59.4224,131.712 68.5,135C 79.6034,138.887 90.9368,141.887 102.5,144C 121.026,148.674 136.859,157.841 150,171.5C 152.557,175.945 154.557,180.611 156,185.5C 160.508,213.273 150.008,232.773 124.5,244C 107.245,249.286 89.578,250.953 71.5,249C 49.1782,245.934 32.3449,234.767 21,215.5C 18.9863,210.96 17.4863,206.294 16.5,201.5 Z"/></g>
<g><path style="opacity:1" fill="#252d31" d="M 502.5,71.5 C 492.916,72.4732 483.25,72.8065 473.5,72.5C 472.883,72.3893 472.383,72.056 472,71.5C 471.333,66.1667 471.333,60.8333 472,55.5C 479.329,42.9468 488.663,41.2801 500,50.5C 503.547,57.2778 504.38,64.2778 502.5,71.5 Z"/></g>
<g><path style="opacity:1" fill="#f1f4f6" d="M 483.5,55.5 C 489.826,53.8411 492.826,56.1744 492.5,62.5C 488.833,62.5 485.167,62.5 481.5,62.5C 481.394,59.9214 482.061,57.588 483.5,55.5 Z"/></g>
<g><path style="opacity:1" fill="#b2b6b9" d="M 502.5,71.5 C 498.049,72.8271 493.216,73.4937 488,73.5C 482.988,73.4993 478.155,73.1659 473.5,72.5C 483.25,72.8065 492.916,72.4732 502.5,71.5 Z"/></g>
<g><path style="opacity:1" fill="#212a2e" d="M 472.5,80.5 C 482.506,80.3335 492.506,80.5002 502.5,81C 503.602,83.4009 503.769,85.9009 503,88.5C 502.25,89.1258 501.416,89.6258 500.5,90C 491.5,90.6667 482.5,90.6667 473.5,90C 469.968,87.1716 469.634,84.005 472.5,80.5 Z"/></g>
<g><path style="opacity:1" fill="#1e2637" d="M 441.5,126.5 C 433.826,126.334 426.159,126.5 418.5,127C 417.263,127.232 416.263,127.732 415.5,128.5C 400.237,131.958 390.403,141.291 386,156.5C 384.223,163.873 383.056,171.206 382.5,178.5C 381.99,170.958 382.656,163.625 384.5,156.5C 383.474,154.257 383.641,152.257 385,150.5C 385.333,151.167 385.667,151.833 386,152.5C 387.497,150.041 387.664,147.541 386.5,145C 387.127,142.865 387.627,140.698 388,138.5C 389.667,138.833 391.333,139.167 393,139.5C 393.925,138.953 394.758,138.287 395.5,137.5C 394.67,135.865 394.503,134.198 395,132.5C 393.989,131.663 392.822,131.33 391.5,131.5C 391.5,130.167 391.5,128.833 391.5,127.5C 392.978,127.762 394.311,127.429 395.5,126.5C 394.137,125.107 393.304,123.441 393,121.5C 392.147,123.125 391.147,123.458 390,122.5C 389.51,123.793 389.343,125.127 389.5,126.5C 386.214,127.207 382.881,127.54 379.5,127.5C 378.997,121.118 378.163,114.785 377,108.5C 373.333,107.833 369.667,107.167 366,106.5C 365.667,107.5 365.333,108.5 365,109.5C 364.167,153.17 364.333,196.837 365.5,240.5C 369.881,243.563 374.714,244.563 380,243.5C 380.355,244.509 381.188,245.176 382.5,245.5C 375.352,246.492 368.019,246.825 360.5,246.5C 360.5,199.5 360.5,152.5 360.5,105.5C 366.833,105.5 373.167,105.5 379.5,105.5C 379.438,112.678 380.438,119.678 382.5,126.5C 390.414,115.429 401.08,108.595 414.5,106C 423.494,105.5 432.494,105.334 441.5,105.5C 441.5,112.5 441.5,119.5 441.5,126.5 Z"/></g>
<g><path style="opacity:1" fill="#1c2438" d="M 382.5,178.5 C 382.5,200.833 382.5,223.167 382.5,245.5C 381.188,245.176 380.355,244.509 380,243.5C 374.714,244.563 369.881,243.563 365.5,240.5C 364.333,196.837 364.167,153.17 365,109.5C 365.333,108.5 365.667,107.5 366,106.5C 369.667,107.167 373.333,107.833 377,108.5C 378.163,114.785 378.997,121.118 379.5,127.5C 382.881,127.54 386.214,127.207 389.5,126.5C 389.343,125.127 389.51,123.793 390,122.5C 391.147,123.458 392.147,123.125 393,121.5C 393.304,123.441 394.137,125.107 395.5,126.5C 394.311,127.429 392.978,127.762 391.5,127.5C 391.5,128.833 391.5,130.167 391.5,131.5C 392.822,131.33 393.989,131.663 395,132.5C 394.503,134.198 394.67,135.865 395.5,137.5C 394.758,138.287 393.925,138.953 393,139.5C 391.333,139.167 389.667,138.833 388,138.5C 387.627,140.698 387.127,142.865 386.5,145C 387.664,147.541 387.497,150.041 386,152.5C 385.667,151.833 385.333,151.167 385,150.5C 383.641,152.257 383.474,154.257 384.5,156.5C 382.656,163.625 381.99,170.958 382.5,178.5 Z"/></g>
<g><path style="opacity:1" fill="#b0b6c3" d="M 441.5,126.5 C 432.986,127.285 424.319,127.952 415.5,128.5C 416.263,127.732 417.263,127.232 418.5,127C 426.159,126.5 433.826,126.334 441.5,126.5 Z"/></g>
<g><path style="opacity:1" fill="#1e2638" d="M 799.5,248.5 C 791.534,249.365 783.534,249.698 775.5,249.5C 748.96,246.478 730.127,232.811 719,208.5C 713.766,192.574 712.1,176.241 714,159.5C 722.638,122.689 745.805,103.689 783.5,102.5C 818.433,102.878 841.599,119.544 853,152.5C 855.084,160.171 856.25,168.004 856.5,176C 856.478,179.086 856.145,182.086 855.5,185C 815.501,185.5 775.501,185.667 735.5,185.5C 742.187,216.663 761.52,230.829 793.5,228C 807.993,225.5 819.326,218.166 827.5,206C 835.827,205.5 844.16,205.334 852.5,205.5C 845.11,224.058 832.11,237.224 813.5,245C 808.961,246.7 804.294,247.867 799.5,248.5 Z"/></g>
<g><path style="opacity:1" fill="#fcfdfd" d="M 777.5,123.5 C 801.458,121.888 818.958,131.554 830,152.5C 830.993,155.474 831.826,158.474 832.5,161.5C 832.5,162.5 832.5,163.5 832.5,164.5C 800.833,164.5 769.167,164.5 737.5,164.5C 736.512,160.845 737.012,157.179 739,153.5C 743.357,143.816 749.857,135.983 758.5,130C 762.203,127.646 766.203,126.146 770.5,125.5C 773.152,125.59 775.485,124.924 777.5,123.5 Z"/></g>
<g><path style="opacity:1" fill="#9699a2" d="M 777.5,123.5 C 775.485,124.924 773.152,125.59 770.5,125.5C 772.515,124.076 774.848,123.41 777.5,123.5 Z"/></g>
<g><path style="opacity:1" fill="#868c97" d="M 832.5,161.5 C 833.434,162.568 833.768,163.901 833.5,165.5C 801.329,165.832 769.329,165.498 737.5,164.5C 769.167,164.5 800.833,164.5 832.5,164.5C 832.5,163.5 832.5,162.5 832.5,161.5 Z"/></g>
<g><path style="opacity:1" fill="#626773" d="M 38.5,189.5 C 31.4921,189.334 24.4921,189.5 17.5,190C 16.5399,193.73 16.2065,197.563 16.5,201.5C 15.5151,197.366 15.1818,193.032 15.5,188.5C 23.3516,188.175 31.0182,188.508 38.5,189.5 Z"/></g>
<g><path style="opacity:1" fill="#b2b6be" d="M 541.5,47.5 C 549.167,47.5 556.833,47.5 564.5,47.5C 564.167,72.8421 564.5,98.1754 565.5,123.5C 574.78,113.685 586.113,107.185 599.5,104C 632.278,97.29 658.445,107.123 678,133.5C 692.591,160.494 693.257,187.827 680,215.5C 662.199,242.719 637.033,253.885 604.5,249C 588.673,246.17 575.173,239.004 564,227.5C 562.144,233.71 560.977,240.044 560.5,246.5C 554.167,246.5 547.833,246.5 541.5,246.5C 541.5,180.167 541.5,113.833 541.5,47.5 Z"/></g>
<g><path style="opacity:1" fill="#101214" d="M 549.5,164.5 C 550.5,164.5 551.5,164.5 552.5,164.5C 551.167,172.833 551.167,181.167 552.5,189.5C 551.325,189.719 550.325,189.386 549.5,188.5C 546.963,180.479 546.963,172.479 549.5,164.5 Z"/></g>
<g><path style="opacity:1" fill="#0c0e13" d="M 678.5,164.5 C 679.5,164.5 680.5,164.5 681.5,164.5C 682.818,172.515 682.651,180.515 681,188.5C 679.174,189.841 678.007,189.341 677.5,187C 678.425,179.393 678.759,171.893 678.5,164.5 Z"/></g>
<g><path style="opacity:1" fill="#0c0e11" d="M 663.5,154.5 C 664.141,149.757 665.641,149.423 668,153.5C 675.579,170.655 675.246,187.655 667,204.5C 665.989,205.337 664.822,205.67 663.5,205.5C 667.004,196.651 669.337,187.484 670.5,178C 670.039,169.462 667.705,161.629 663.5,154.5 Z"/></g>
<g><path style="opacity:1" fill="#101214" d="M 563.5,151.5 C 564.5,151.5 565.5,151.5 566.5,151.5C 565.579,156.014 564.079,160.347 562,164.5C 558.631,178.458 560.465,191.625 567.5,204C 566.892,204.87 566.059,205.37 565,205.5C 560.683,199.946 558.016,193.613 557,186.5C 555.313,174.077 557.48,162.41 563.5,151.5 Z"/></g>
<g><path style="opacity:1" fill="#141415" d="M 664.5,186.5 C 663.388,188.599 662.721,190.933 662.5,193.5C 659.247,202.153 653.914,209.32 646.5,215C 644.559,216.903 642.226,217.736 639.5,217.5C 639.281,216.325 639.614,215.325 640.5,214.5C 661.466,199.087 666.632,179.421 656,155.5C 651.5,148.333 645.667,142.5 638.5,138C 641.352,136.037 644.019,136.37 646.5,139C 661.48,151.44 667.48,167.274 664.5,186.5 Z"/></g>
<g><path style="opacity:1" fill="#131414" d="M 569.5,196.5 C 565.463,186.503 564.463,176.169 566.5,165.5C 569.503,154.003 575.836,144.836 585.5,138C 587.45,136.504 589.45,136.337 591.5,137.5C 585.51,142.657 580.01,148.324 575,154.5C 565.549,172.328 566.883,189.328 579,205.5C 582.221,208.855 585.721,211.855 589.5,214.5C 590.386,215.325 590.719,216.325 590.5,217.5C 580.596,213.596 573.596,206.596 569.5,196.5 Z"/></g>
<g><path style="opacity:1" fill="#7b7d88" d="M 302.5,195.5 C 310.316,194.508 318.316,194.174 326.5,194.5C 326.737,195.791 326.404,196.791 325.5,197.5C 318.24,195.535 310.573,194.868 302.5,195.5 Z"/></g>
<g><path style="opacity:1" fill="#1b2428" d="M 481.5,100.5 C 481.5,136.5 481.5,172.5 481.5,208.5C 485.371,208.815 489.038,208.482 492.5,207.5C 492.333,171.832 492.5,136.165 493,100.5C 496.333,96.5 499.667,96.5 503,100.5C 503.667,140.833 503.667,181.167 503,221.5C 499.006,231.49 495.006,241.49 491,251.5C 490.359,253.813 489.026,255.48 487,256.5C 486.228,256.355 485.561,256.022 485,255.5C 481.226,244.616 476.892,233.95 472,223.5C 471.333,182.167 471.333,140.833 472,99.5C 474.121,97.5426 476.621,97.0426 479.5,98C 480.381,98.7083 481.047,99.5416 481.5,100.5 Z"/></g>
<g><path style="opacity:1" fill="#c3c7ca" d="M 481.5,100.5 C 482.498,135.996 482.832,171.663 482.5,207.5C 485.833,207.5 489.167,207.5 492.5,207.5C 489.038,208.482 485.371,208.815 481.5,208.5C 481.5,172.5 481.5,136.5 481.5,100.5 Z"/></g>
<g><path style="opacity:1" fill="#f3f4f4" d="M 663.5,154.5 C 666.309,164.961 667.143,175.628 666,186.5C 665.221,189.097 664.721,189.097 664.5,186.5C 667.48,167.274 661.48,151.44 646.5,139C 644.019,136.37 641.352,136.037 638.5,138C 645.667,142.5 651.5,148.333 656,155.5C 666.632,179.421 661.466,199.087 640.5,214.5C 639.614,215.325 639.281,216.325 639.5,217.5C 642.226,217.736 644.559,216.903 646.5,215C 653.914,209.32 659.247,202.153 662.5,193.5C 663.097,193.735 663.43,194.235 663.5,195C 654.745,217.254 638.412,228.087 614.5,227.5C 592.562,227.213 576.895,217.213 567.5,197.5C 567.957,196.702 568.624,196.369 569.5,196.5C 573.596,206.596 580.596,213.596 590.5,217.5C 590.719,216.325 590.386,215.325 589.5,214.5C 585.721,211.855 582.221,208.855 579,205.5C 566.883,189.328 565.549,172.328 575,154.5C 580.01,148.324 585.51,142.657 591.5,137.5C 589.45,136.337 587.45,136.504 585.5,138C 575.836,144.836 569.503,154.003 566.5,165.5C 565.903,165.265 565.57,164.765 565.5,164C 573.627,134.904 592.96,121.571 623.5,124C 641.961,127.648 655.294,137.815 663.5,154.5 Z"/></g>
<g><path style="opacity:1" fill="#131313" d="M 610.5,135.5 C 630.69,134.838 645.19,143.505 654,161.5C 660.514,185.303 653.014,203.136 631.5,215C 604.166,223.082 585.332,213.915 575,187.5C 571.285,159.404 583.119,142.071 610.5,135.5 Z"/></g>
<g><path style="opacity:1" fill="#d4d4d4" d="M 643.5,196.5 C 644.978,196.238 646.311,196.571 647.5,197.5C 644.857,201.977 641.357,205.643 637,208.5C 639.351,204.813 641.517,200.813 643.5,196.5 Z"/></g>
<g><path style="opacity:1" fill="#e6e6e6" d="M 582.5,197.5 C 584.035,196.212 585.701,196.212 587.5,197.5C 588.789,200.58 590.455,203.414 592.5,206C 588.494,204.176 585.16,201.343 582.5,197.5 Z"/></g>
<g><path style="opacity:1" fill="#efefef" d="M 631.5,196.5 C 634.247,196.187 636.914,196.52 639.5,197.5C 636.366,203.797 631.866,208.797 626,212.5C 628.425,207.517 630.258,202.184 631.5,196.5 Z"/></g>
<g><path style="opacity:1" fill="#f2f2f2" d="M 616.5,196.5 C 620.514,196.334 624.514,196.501 628.5,197C 627.005,200.817 625.505,204.65 624,208.5C 622.478,211.224 620.311,213.224 617.5,214.5C 616.504,208.537 616.171,202.537 616.5,196.5 Z"/></g>
<g><path style="opacity:1" fill="#f5f5f5" d="M 602.5,196.5 C 606.167,196.5 609.833,196.5 613.5,196.5C 613.829,202.537 613.496,208.537 612.5,214.5C 606.567,209.97 603.234,203.97 602.5,196.5 Z"/></g>
<g><path style="opacity:1" fill="#ededed" d="M 590.5,196.5 C 593.5,196.5 596.5,196.5 599.5,196.5C 600.239,202.147 602.239,207.313 605.5,212C 598.406,209.069 593.406,203.903 590.5,196.5 Z"/></g>
<g><path style="opacity:1" fill="#c8c8c8" d="M 617.5,178.5 C 617.5,183.167 617.5,187.833 617.5,192.5C 621.167,192.5 624.833,192.5 628.5,192.5C 628.263,191.209 628.596,190.209 629.5,189.5C 629.5,190.833 629.5,192.167 629.5,193.5C 625.167,193.5 620.833,193.5 616.5,193.5C 616.179,188.305 616.513,183.305 617.5,178.5 Z"/></g>
<g><path style="opacity:1" fill="#f0f0f0" d="M 647.5,178.5 C 649.5,178.5 651.5,178.5 653.5,178.5C 653.276,183.397 652.109,188.064 650,192.5C 648.644,193.38 647.144,193.714 645.5,193.5C 646.167,188.5 646.833,183.5 647.5,178.5 Z"/></g>
<g><path style="opacity:1" fill="#f4f4f4" d="M 633.5,178.5 C 636.833,178.5 640.167,178.5 643.5,178.5C 643.483,183.268 642.816,187.934 641.5,192.5C 638.572,193.484 635.572,193.817 632.5,193.5C 633.053,188.518 633.387,183.518 633.5,178.5 Z"/></g>
<g><path style="opacity:1" fill="#fbfbfb" d="M 617.5,178.5 C 621.833,178.5 626.167,178.5 630.5,178.5C 630.577,182.215 630.244,185.881 629.5,189.5C 628.596,190.209 628.263,191.209 628.5,192.5C 624.833,192.5 621.167,192.5 617.5,192.5C 617.5,187.833 617.5,183.167 617.5,178.5 Z"/></g>
<g><path style="opacity:1" fill="#f3f3f3" d="M 599.5,178.5 C 604.167,178.5 608.833,178.5 613.5,178.5C 613.5,183.5 613.5,188.5 613.5,193.5C 609.445,193.824 605.445,193.491 601.5,192.5C 600.016,187.959 599.349,183.292 599.5,178.5 Z"/></g>
<g><path style="opacity:1" fill="#f0f0f0" d="M 586.5,178.5 C 590.167,178.5 593.833,178.5 597.5,178.5C 597.5,183.5 597.5,188.5 597.5,193.5C 594.5,193.5 591.5,193.5 588.5,193.5C 587.1,188.636 586.433,183.636 586.5,178.5 Z"/></g>
<g><path style="opacity:1" fill="#f2f2f2" d="M 577.5,178.5 C 579.5,178.5 581.5,178.5 583.5,178.5C 583.292,183.636 583.959,188.636 585.5,193.5C 583.533,193.739 581.699,193.406 580,192.5C 578.026,188.049 577.193,183.382 577.5,178.5 Z"/></g>
<g><path style="opacity:1" fill="#f1f1f1" d="M 645.5,161.5 C 647.288,161.215 648.955,161.548 650.5,162.5C 652.391,166.618 653.391,170.951 653.5,175.5C 651.5,175.5 649.5,175.5 647.5,175.5C 647.154,170.784 646.487,166.117 645.5,161.5 Z"/></g>
<g><path style="opacity:1" fill="#f3f3f3" d="M 632.5,161.5 C 635.777,161.216 638.943,161.549 642,162.5C 642.996,166.816 643.83,171.149 644.5,175.5C 640.833,175.5 637.167,175.5 633.5,175.5C 633.647,170.786 633.314,166.119 632.5,161.5 Z"/></g>
<g><path style="opacity:1" fill="#f4f4f4" d="M 616.5,161.5 C 620.833,161.5 625.167,161.5 629.5,161.5C 630.229,166.13 630.563,170.797 630.5,175.5C 625.833,175.5 621.167,175.5 616.5,175.5C 616.5,170.833 616.5,166.167 616.5,161.5 Z"/></g>
<g><path style="opacity:1" fill="#f3f3f3" d="M 600.5,161.5 C 604.833,161.5 609.167,161.5 613.5,161.5C 613.5,166.167 613.5,170.833 613.5,175.5C 608.833,175.5 604.167,175.5 599.5,175.5C 599.54,170.807 599.873,166.141 600.5,161.5 Z"/></g>
<g><path style="opacity:1" fill="#f2f2f2" d="M 588.5,161.5 C 591.5,161.5 594.5,161.5 597.5,161.5C 597.563,166.203 597.229,170.87 596.5,175.5C 593.167,175.5 589.833,175.5 586.5,175.5C 586.35,170.699 587.016,166.033 588.5,161.5 Z"/></g>
<g><path style="opacity:1" fill="#eeeeee" d="M 579.5,161.5 C 581.527,161.338 583.527,161.505 585.5,162C 583.752,166.294 583.085,170.794 583.5,175.5C 581.5,175.5 579.5,175.5 577.5,175.5C 577.35,170.7 578.016,166.033 579.5,161.5 Z"/></g>
<g><path style="opacity:1" fill="#757575" d="M 602.5,156.5 C 605.962,157.482 609.629,157.815 613.5,157.5C 609.649,158.809 605.649,158.809 601.5,157.5C 601.624,156.893 601.957,156.56 602.5,156.5 Z"/></g>
<g><path style="opacity:1" fill="#7e7e7e" d="M 591.5,155.5 C 593.279,157.344 595.612,158.01 598.5,157.5C 596.052,158.473 593.385,158.806 590.5,158.5C 590.263,157.209 590.596,156.209 591.5,155.5 Z"/></g>
<g><path style="opacity:1" fill="#d8d8d8" d="M 592.5,145.5 C 593.239,145.369 593.906,145.536 594.5,146C 591.117,149.269 588.617,153.103 587,157.5C 585.506,158.747 584.006,158.747 582.5,157.5C 585.48,153.189 588.813,149.189 592.5,145.5 Z"/></g>
<g><path style="opacity:1" fill="#dfdfdf" d="M 636.5,145.5 C 641.124,148.124 644.791,151.791 647.5,156.5C 646.167,157.833 644.833,157.833 643.5,156.5C 641.395,152.608 639.062,148.941 636.5,145.5 Z"/></g>
<g><path style="opacity:1" fill="#e6e6e6" d="M 625.5,141.5 C 632.753,144.991 637.42,150.657 639.5,158.5C 636.833,158.5 634.167,158.5 631.5,158.5C 630.567,152.424 628.567,146.758 625.5,141.5 Z"/></g>
<g><path style="opacity:1" fill="#ededed" d="M 598.5,157.5 C 595.612,158.01 593.279,157.344 591.5,155.5C 594.484,149.011 599.151,144.511 605.5,142C 602.276,146.868 599.943,152.034 598.5,157.5 Z"/></g>
<g><path style="opacity:1" fill="#b3b3b3" d="M 618.5,140.5 C 617.511,145.975 617.178,151.642 617.5,157.5C 621.329,158.069 624.663,157.402 627.5,155.5C 628.404,156.209 628.737,157.209 628.5,158.5C 624.5,158.5 620.5,158.5 616.5,158.5C 616.17,152.132 616.504,145.798 617.5,139.5C 618.107,139.624 618.44,139.957 618.5,140.5 Z"/></g>
<g><path style="opacity:1" fill="#f5f5f5" d="M 613.5,157.5 C 609.629,157.815 605.962,157.482 602.5,156.5C 603.525,149.447 606.858,143.781 612.5,139.5C 613.496,145.463 613.829,151.463 613.5,157.5 Z"/></g>
<g><path style="opacity:1" fill="#f7f7f7" d="M 618.5,140.5 C 621.091,141.254 622.924,142.921 624,145.5C 625.467,148.758 626.633,152.092 627.5,155.5C 624.663,157.402 621.329,158.069 617.5,157.5C 617.178,151.642 617.511,145.975 618.5,140.5 Z"/></g>
<g><path style="opacity:1" fill="#eff2f5" d="M 481.5,218.5 C 485.167,218.5 488.833,218.5 492.5,218.5C 491.564,224.476 489.73,230.142 487,235.5C 484.699,229.956 482.866,224.29 481.5,218.5 Z"/></g>
<g><path style="opacity:1" fill="#1e2638" d="M 252.5,123.5 C 248.84,123.159 245.507,123.825 242.5,125.5C 218.555,133.328 206.222,149.995 205.5,175.5C 205.703,196.081 214.37,211.914 231.5,223C 236.597,225.385 241.931,226.885 247.5,227.5C 249.473,228.163 251.639,228.496 254,228.5C 258.095,228.569 261.928,227.903 265.5,226.5C 278.115,224.108 288.282,217.775 296,207.5C 298.464,203.566 300.631,199.566 302.5,195.5C 310.573,194.868 318.24,195.535 325.5,197.5C 316.702,226.462 297.368,243.629 267.5,249C 227.193,253.776 200.026,237.276 186,199.5C 178.287,171.774 183.287,146.774 201,124.5C 223.58,102.682 250.08,96.5158 280.5,106C 304.272,114.595 318.939,131.095 324.5,155.5C 317.159,155.666 309.826,155.5 302.5,155C 292.191,134.543 275.524,124.043 252.5,123.5 Z"/></g>
<g><path style="opacity:1" fill="#878a93" d="M 252.5,123.5 C 249.373,124.581 246.04,125.247 242.5,125.5C 245.507,123.825 248.84,123.159 252.5,123.5 Z"/></g>
<g><path style="opacity:1" fill="#abaeba" d="M 265.5,226.5 C 261.928,227.903 258.095,228.569 254,228.5C 251.639,228.496 249.473,228.163 247.5,227.5C 253.523,227.498 259.523,227.165 265.5,226.5 Z"/></g>
<g><path style="opacity:1" fill="#949aa5" d="M 799.5,248.5 C 798.737,249.268 797.737,249.768 796.5,250C 789.321,250.821 782.321,250.655 775.5,249.5C 783.534,249.698 791.534,249.365 799.5,248.5 Z"/></g>
</svg>
